<?xml version="1.0" encoding="UTF-8" standalone="no"?>
<svg
   version="1.1"
   width="48"
   height="48"
   viewBox="0 0 48 48"
   id="svg9"
   sodipodi:docname="firefox-media-candy.svg"
   inkscape:version="1.4.2 (ebf0e940d0, 2025-05-08)"
   xmlns:inkscape="http://www.inkscape.org/namespaces/inkscape"
   xmlns:sodipodi="http://sodipodi.sourceforge.net/DTD/sodipodi-0.dtd"
   xmlns="http://www.w3.org/2000/svg"
   xmlns:svg="http://www.w3.org/2000/svg">
  <sodipodi:namedview
     id="namedview9"
     pagecolor="#505050"
     bordercolor="#eeeeee"
     borderopacity="1"
     inkscape:showpageshadow="0"
     inkscape:pageopacity="0"
     inkscape:pagecheckerboard="0"
     inkscape:deskcolor="#505050"
     inkscape:zoom="0.68869254"
     inkscape:cx="-374.6229"
     inkscape:cy="-20.328375"
     inkscape:window-width="1920"
     inkscape:window-height="1005"
     inkscape:window-x="0"
     inkscape:window-y="0"
     inkscape:window-maximized="1"
     inkscape:current-layer="svg9" />
  <defs
     id="defs9">
    <radialGradient
       id="grad"
       cx="24"
       cy="24"
       fx="24"
       fy="24"
       fr="0"
       r="23.66309"
       gradientTransform="matrix(0.99999999,0,0,1.0142378,-0.33689251,0.22718569)"
       gradientUnits="userSpaceOnUse"
       spreadMethod="pad">
      <stop
         offset="0.13461348"
         stop-color="#ffea00"
         id="stop1"
         style="stop-color:#e02c6d;stop-opacity:1;" />
      <stop
         offset="0.36500001"
         stop-color="#ffbf00"
         id="stop3"
         style="stop-color:#ff5c8f;stop-opacity:1;" />
      <stop
         offset="0.5734334"
         stop-color="#ff272d"
         id="stop5"
         style="stop-color:#68a8e4;stop-opacity:1;" />
      <stop
         offset="0.72498292"
         stop-color="#f92433"
         id="stop6"
         style="stop-color:#2c78bf;stop-opacity:1;" />
      <stop
         offset="0.85959727"
         stop-color="#cf0e62"
         id="stop8"
         style="stop-color:#0aaeb3;stop-opacity:1;" />
      <stop
         offset="0.99079412"
         stop-color="#b5007f"
         id="stop9"
         style="stop-color:#93ede7;stop-opacity:1;" />
    </radialGradient>
  </defs>
  <path
     style="fill:none;stroke:url(#grad);stroke-width:3.48644;stroke-linecap:round;stroke-linejoin:round"
     d="M 6.207225,16.3597 5.9539757,17.390276 M 33.051465,28.532552 c 0,0 13.801851,-4.845677 5.381466,-20.933382 M 31.911799,3.2842154 c 0,0 -7.465562,-2.89849549 -15.321452,0 m 3.283182,-0.8305316 c 0,0 -3.398085,0.1898843 -6.880232,2.5086874 0,0 7.606985,-4.51782372 15.58426,-0.6449558 0.990218,0.6551291 6.999213,2.8947452 9.285554,10.3675886 0,0 2.469151,6.441121 -2.15261,11.980485 0,0 -4.051954,4.186727 -9.560077,2.576453 0,0 -4.431825,-0.386469 -5.634743,-5.474954 0,0 -1.139614,-3.413789 1.45617,-6.441134 m 0,0 c 0,0 -5.571439,0.193241 -5.254872,8.502287 m 0,0 c 0,0 -5.318201,-9.919319 6.837661,-17.9063066 0,0 -10.762996,-2.2544065 -17.6006643,9.4684416 0,0 0.9496774,-4.895257 1.5194858,-6.763181 0,0 -7.34416629,5.474955 -4.495136,19.645423 0,0 2.5324689,8.824335 11.1428695,13.461941 0,0 8.737019,5.474954 20.196452,-0.386457 0,0 5.887996,-2.576454 9.24351,-9.919332 0,0 4.051953,-8.695515 0.886362,-16.940151 0,0 -3.798701,-10.0481525 -12.53572,-13.2043036"
     id="path9" />
</svg>
